<?xml version="1.0" standalone="no"?>
<!DOCTYPE svg PUBLIC "-//W3C//DTD SVG 20010904//EN"
 "http://www.w3.org/TR/2001/REC-SVG-20010904/DTD/svg10.dtd">
<svg version="1.0" xmlns="http://www.w3.org/2000/svg"
 width="512.000000pt" height="512.000000pt" viewBox="0 0 512.000000 512.000000"
 preserveAspectRatio="xMidYMid meet">

<g transform="translate(0.000000,512.000000) scale(0.100000,-0.100000)"
fill="#000000" stroke="none">
<path d="M1550 5111 c-46 -15 -85 -39 -116 -73 -52 -55 -68 -95 -68 -173 0
-70 12 -104 55 -165 10 -14 25 -54 34 -90 32 -130 104 -329 156 -433 l20 -37
-40 -42 -39 -42 -48 40 c-91 76 -210 153 -305 198 -212 102 -352 102 -454 1
-58 -59 -77 -112 -83 -235 -18 -378 154 -653 477 -766 42 -14 82 -28 89 -30
10 -3 11 -27 5 -111 -20 -270 -6 -574 38 -868 69 -451 164 -739 304 -922 l55
-73 0 -604 c0 -394 4 -614 10 -632 22 -56 -24 -53 920 -53 944 0 898 -3 920
53 6 18 10 238 10 633 l0 605 39 47 c82 98 164 262 209 416 56 193 118 522
143 760 13 122 18 458 9 643 l-5 102 81 29 c246 85 401 247 466 486 17 65 21
110 22 235 1 137 -1 160 -20 200 -64 138 -188 188 -359 145 -124 -32 -318
-142 -459 -259 l-48 -41 -38 43 -38 43 38 82 c46 97 102 258 131 371 11 44 34
101 50 125 38 57 53 114 46 173 -21 172 -212 277 -364 200 -111 -57 -167 -185
-132 -302 10 -32 7 -51 -16 -131 -27 -94 -89 -257 -105 -273 -5 -4 -38 2 -76
14 -58 20 -77 33 -143 99 -217 217 -505 217 -722 0 -66 -66 -85 -79 -143 -99
-38 -12 -71 -18 -76 -14 -16 17 -80 184 -105 275 -24 83 -25 98 -14 136 31
114 -29 240 -144 299 -35 19 -131 27 -167 15z m200 -558 c13 -43 39 -113 57
-156 18 -43 33 -82 33 -85 0 -9 -90 -66 -94 -61 -11 12 -73 168 -102 254 l-33
100 52 11 c29 6 55 12 58 13 3 0 16 -34 29 -76z m1722 58 l37 -6 -33 -100
c-37 -113 -96 -255 -105 -255 -5 0 -72 42 -90 56 -1 1 15 47 37 101 22 54 48
126 57 161 16 56 20 62 39 55 11 -3 38 -9 58 -12z m-1432 -421 c-5 -25 -9 -79
-10 -121 0 -61 5 -85 25 -126 58 -115 189 -158 306 -100 52 26 53 26 79 7 63
-45 177 -45 241 0 27 20 28 20 61 1 18 -11 54 -25 80 -31 93 -24 204 33 248
127 20 43 22 58 17 148 -3 55 -9 111 -13 124 -7 23 -3 22 79 -22 319 -169 492
-452 574 -937 22 -130 25 -558 5 -720 -20 -165 -53 -374 -60 -382 -4 -3 -47
13 -97 37 -168 81 -369 141 -600 179 -132 22 -404 39 -523 33 -116 -7 -149
-20 -158 -66 -5 -26 -11 -29 -58 -35 -28 -4 -61 -10 -73 -13 -18 -4 -25 1 -33
21 -17 44 -49 52 -138 32 -177 -40 -382 -112 -480 -168 -30 -17 -57 -26 -61
-22 -9 10 -33 153 -57 334 -8 63 -17 205 -21 315 -9 294 16 509 83 725 102
327 258 532 505 664 46 25 84 44 85 43 1 -1 -2 -22 -6 -47z m-1019 14 c105
-32 289 -140 403 -238 l38 -33 -16 -31 c-9 -18 -20 -32 -24 -32 -5 0 -35 19
-67 43 -33 24 -98 67 -145 95 -96 59 -143 66 -209 32 -81 -41 -104 -130 -61
-242 54 -145 161 -239 331 -291 14 -5 15 -12 6 -51 -12 -53 -6 -53 -125 -4
-240 99 -365 330 -337 624 6 70 10 81 40 111 39 39 79 43 166 17z m3240 -12
c49 -44 63 -175 35 -324 -40 -209 -144 -340 -328 -416 -119 -49 -115 -49 -123
-3 -4 23 -5 44 -3 48 1 5 24 15 50 25 161 56 261 164 303 325 31 120 -37 213
-157 213 -35 0 -60 -10 -128 -52 -47 -28 -112 -71 -145 -95 -32 -24 -62 -43
-67 -43 -4 0 -15 14 -24 32 l-16 31 38 33 c111 95 286 200 394 235 84 27 133
25 171 -9z m-2353 -3111 c91 -46 251 -97 367 -117 138 -24 433 -24 569 0 171
31 365 101 456 166 l30 21 0 -78 -1 -78 -77 -52 c-103 -69 -211 -178 -250
-251 -72 -135 -81 -303 -27 -514 l7 -28 -325 0 -325 0 -7 73 c-22 229 -93 326
-375 509 l-159 103 -1 158 0 158 28 -19 c15 -11 55 -34 90 -51z"/>
<path d="M1725 2695 c-23 -22 -25 -31 -25 -123 0 -90 2 -100 23 -120 31 -29
80 -29 107 0 17 19 20 35 20 120 0 92 -2 101 -25 123 -13 14 -36 25 -50 25
-14 0 -37 -11 -50 -25z"/>
<path d="M3295 2695 c-23 -22 -25 -31 -25 -123 0 -90 2 -100 23 -120 31 -29
77 -29 105 1 20 21 22 34 22 121 0 90 -2 99 -25 121 -13 14 -36 25 -50 25 -14
0 -37 -11 -50 -25z"/>
</g>
</svg>
